<?xml version="1.0" standalone="no"?>
<!DOCTYPE svg PUBLIC "-//W3C//DTD SVG 20010904//EN"
 "http://www.w3.org/TR/2001/REC-SVG-20010904/DTD/svg10.dtd">
<svg version="1.0" xmlns="http://www.w3.org/2000/svg"
 width="3264.000000pt" height="1078.000000pt" viewBox="0 0 3264.000000 1078.000000"
 preserveAspectRatio="xMidYMid meet">

<g transform="translate(0.000000,1078.000000) scale(0.100000,-0.100000)"
fill="#000000" stroke="none">
<path d="M14927 8073 c-18 -5 -18 -6 -1 -24 16 -18 16 -19 -1 -19 -17 0 -17
-1 0 -20 17 -19 17 -20 1 -20 -9 0 -15 -4 -11 -9 3 -5 -3 -12 -12 -14 -11 -3
-6 -6 12 -7 l30 -2 -29 -7 c-17 -3 -30 -10 -30 -16 0 -5 13 -13 30 -16 27 -6
26 -7 -11 -9 -39 -2 -39 -3 -10 -10 22 -6 25 -8 10 -10 -15 -2 -12 -4 10 -10
29 -7 29 -8 -9 -9 -32 -1 -37 -3 -26 -15 6 -8 24 -17 38 -19 21 -3 18 -5 -13
-7 -39 -2 -39 -3 -10 -10 17 -4 22 -8 12 -9 -10 0 -15 -5 -12 -11 3 -5 -2 -10
-11 -10 -16 0 -16 -1 1 -20 17 -19 17 -20 -1 -21 -11 -1 -7 -4 11 -9 17 -4 22
-8 12 -9 -10 0 -15 -5 -12 -11 3 -5 -1 -10 -10 -10 -9 0 -13 -4 -10 -10 3 -5
-2 -11 -12 -11 -10 -1 -4 -5 12 -9 29 -7 29 -8 -9 -9 -32 -1 -37 -3 -26 -15 6
-8 24 -17 38 -19 20 -3 17 -4 -12 -6 -32 -1 -37 -3 -26 -15 6 -8 24 -17 38
-19 20 -3 17 -4 -12 -6 -32 -1 -37 -3 -26 -15 6 -8 24 -17 38 -19 20 -3 17 -4
-12 -6 -38 -1 -39 -1 -21 -21 17 -19 17 -20 1 -20 -9 0 -15 -4 -11 -9 3 -5 -3
-12 -12 -14 -11 -3 -6 -6 12 -7 l30 -2 -29 -7 c-17 -3 -30 -10 -30 -16 0 -5
13 -13 30 -16 27 -6 26 -7 -11 -9 -39 -2 -39 -3 -10 -10 22 -6 25 -8 10 -10
-15 -2 -12 -4 10 -10 29 -7 29 -8 -9 -9 -32 -1 -37 -3 -26 -15 6 -8 24 -17 38
-19 21 -3 18 -5 -13 -7 -39 -2 -39 -3 -10 -10 17 -4 22 -8 12 -9 -10 0 -15 -5
-12 -11 3 -5 -2 -10 -11 -10 -16 0 -16 -1 1 -20 17 -19 17 -20 -1 -21 -11 -1
-7 -4 11 -9 17 -4 22 -8 12 -9 -10 0 -15 -5 -12 -11 3 -5 -1 -10 -10 -10 -9 0
-14 -4 -10 -9 3 -5 -3 -12 -12 -14 -11 -3 -6 -6 12 -7 l30 -2 -30 -7 c-16 -3
-30 -11 -30 -16 0 -5 14 -13 30 -16 29 -6 28 -7 -9 -8 -32 -1 -37 -3 -26 -15
6 -8 24 -17 38 -19 20 -3 17 -4 -12 -6 -33 -1 -37 -3 -26 -16 7 -8 23 -15 37
-15 13 0 22 -4 19 -9 -10 -15 25 -23 121 -28 97 -6 192 7 240 32 15 8 32 15
36 15 4 0 34 18 66 40 181 123 266 337 216 548 -17 72 -69 180 -90 189 -8 3
-15 11 -15 17 0 16 -52 66 -68 66 -7 0 -12 4 -12 9 0 14 -70 56 -145 86 -53
22 -88 29 -145 30 -41 1 -83 0 -93 -2z m-19 -420 c-10 -2 -26 -2 -35 0 -10 3
-2 5 17 5 19 0 27 -2 18 -5z m-80 -480 c-10 -2 -26 -2 -35 0 -10 3 -2 5 17 5
19 0 27 -2 18 -5z"/>
<path d="M19905 7903 c-33 -8 -45 -24 -45 -56 0 -16 43 -147 96 -291 52 -144
388 -1060 745 -2036 358 -976 666 -1815 686 -1864 110 -276 280 -417 542 -447
312 -36 550 96 693 384 24 47 485 1287 1128 3032 71 193 197 535 281 760 164
444 176 488 129 512 -19 10 -136 13 -515 13 -447 0 -493 -2 -524 -18 -68 -34
15 213 -821 -2452 -83 -267 -173 -552 -198 -633 -26 -82 -51 -149 -56 -150 -5
-1 -244 709 -531 1578 -287 869 -527 1592 -533 1607 -6 15 -23 35 -39 45 -25
17 -64 18 -523 20 -272 0 -504 -1 -515 -4z"/>
<path d="M26260 6800 c-232 -17 -379 -56 -572 -152 -181 -89 -295 -174 -438
-325 -204 -214 -362 -521 -431 -836 -64 -290 -65 -687 -4 -977 85 -405 289
-759 570 -990 177 -145 377 -245 600 -299 107 -25 149 -31 285 -40 684 -45
1245 280 1541 893 133 277 191 548 191 906 1 600 -171 1042 -549 1411 -307
300 -722 442 -1193 409z m333 -929 c289 -102 467 -436 467 -878 0 -263 -59
-474 -186 -663 -122 -182 -277 -264 -499 -263 -259 1 -446 115 -550 335 -76
162 -105 322 -105 583 0 262 29 420 105 580 85 177 210 277 400 321 88 20 292
12 368 -15z"/>
<path d="M30161 6799 c-294 -26 -574 -126 -801 -287 -183 -129 -378 -346 -493
-549 -281 -494 -316 -1227 -87 -1768 117 -276 268 -477 505 -674 304 -253 701
-370 1155 -341 322 20 605 115 820 275 124 92 466 429 476 470 4 16 1 38 -7
54 -8 16 -119 130 -248 254 l-235 227 -64 0 -65 0 -101 -98 c-139 -134 -246
-202 -396 -250 -186 -60 -402 -59 -566 3 -318 120 -510 526 -466 989 31 331
160 576 367 701 257 154 677 112 916 -92 59 -50 152 -152 190 -208 28 -40 72
-65 102 -57 12 3 146 126 297 272 312 303 307 295 250 382 -46 69 -165 202
-261 291 -333 310 -780 451 -1288 406z"/>
<path d="M17622 6789 c-415 -48 -784 -246 -1050 -562 -191 -229 -301 -449
-372 -749 -65 -275 -67 -676 -5 -959 119 -537 471 -990 930 -1196 231 -103
417 -142 683 -143 396 0 718 94 977 287 107 79 430 400 449 445 10 22 11 40 4
59 -5 16 -113 129 -248 259 l-238 230 -60 0 -61 0 -98 -98 c-54 -54 -125 -116
-158 -137 -214 -140 -457 -193 -686 -149 -170 32 -289 104 -394 237 -106 134
-170 292 -196 484 -16 121 -6 373 20 485 68 298 237 506 474 585 75 25 95 27
242 27 137 1 172 -2 243 -22 187 -51 346 -164 474 -335 96 -128 92 -129 339
109 327 314 359 348 359 378 0 35 -48 108 -148 221 -273 313 -604 490 -1007
540 -128 16 -353 18 -473 4z"/>
<path d="M14715 6720 c22 -6 25 -8 10 -10 -15 -2 -12 -4 10 -10 17 -4 22 -8
12 -9 -10 0 -15 -5 -12 -11 3 -5 -1 -10 -10 -10 -9 0 -13 -4 -10 -10 3 -5 -2
-11 -12 -11 -10 -1 -4 -5 12 -9 29 -7 29 -8 -9 -9 -32 -1 -37 -3 -26 -15 6 -8
24 -17 38 -19 20 -3 17 -4 -12 -6 -38 -1 -39 -1 -21 -21 17 -19 17 -20 0 -20
-27 0 0 -28 33 -33 20 -3 17 -4 -12 -6 -38 -1 -39 -1 -21 -21 17 -19 17 -20 1
-20 -9 0 -15 -4 -11 -9 3 -5 -3 -12 -12 -14 -11 -3 -6 -6 12 -7 l30 -2 -30 -7
c-38 -8 -38 -24 1 -32 27 -6 26 -7 -11 -9 -39 -2 -39 -3 -10 -10 22 -6 25 -8
10 -10 -15 -2 -12 -4 10 -10 29 -7 29 -8 -9 -9 -32 -1 -37 -3 -26 -15 6 -8 24
-17 38 -19 21 -3 18 -5 -13 -7 -39 -2 -39 -3 -10 -10 17 -4 22 -8 12 -9 -10 0
-15 -5 -12 -11 3 -5 -2 -10 -11 -10 -16 0 -16 -1 1 -20 17 -19 17 -20 -1 -21
-11 -1 -7 -4 11 -9 17 -4 22 -8 12 -9 -10 0 -15 -5 -12 -11 3 -5 -1 -10 -10
-10 -9 0 -14 -4 -10 -9 3 -5 -3 -12 -12 -14 -11 -3 -6 -6 12 -7 l30 -2 -30 -7
c-38 -8 -38 -24 1 -32 27 -6 26 -7 -10 -8 -32 -1 -37 -3 -26 -15 6 -8 24 -17
38 -19 20 -3 17 -4 -12 -6 -32 -1 -37 -3 -26 -15 6 -8 24 -17 38 -19 20 -3 17
-4 -12 -6 -38 -1 -39 -1 -21 -21 17 -19 17 -20 1 -20 -9 0 -15 -4 -11 -9 3 -5
-3 -12 -12 -14 -11 -3 -6 -6 12 -7 l30 -2 -30 -7 c-16 -3 -30 -11 -30 -16 0
-5 14 -13 30 -16 17 -4 22 -7 12 -8 -10 0 -16 -5 -12 -10 3 -5 -3 -12 -12 -14
-11 -3 -6 -6 12 -7 l30 -2 -29 -7 c-17 -3 -30 -10 -30 -16 0 -5 13 -13 30 -16
27 -6 26 -7 -11 -9 -39 -2 -39 -3 -10 -10 17 -4 22 -8 12 -9 -10 0 -15 -5 -12
-11 3 -5 -2 -10 -11 -10 -16 0 -16 -1 1 -20 17 -19 17 -20 -1 -21 -11 -1 -7
-4 11 -9 17 -4 22 -8 12 -9 -10 0 -15 -5 -12 -11 3 -5 -1 -10 -10 -10 -9 0
-14 -4 -10 -9 3 -5 -3 -12 -12 -14 -11 -3 -6 -6 12 -7 l30 -2 -29 -7 c-30 -6
-38 -22 -15 -30 7 -2 9 1 5 8 -5 7 4 11 26 10 18 -1 25 -3 15 -6 -9 -2 -15 -9
-12 -14 4 -5 -1 -9 -10 -9 -9 0 -13 -4 -10 -10 3 -5 -2 -11 -12 -11 -10 -1 -4
-5 12 -9 29 -7 29 -8 -9 -9 -32 -1 -37 -3 -26 -15 6 -8 24 -17 38 -19 20 -3
17 -4 -12 -6 -38 -1 -39 -1 -21 -21 17 -19 17 -20 0 -20 -17 0 -17 -1 0 -20
17 -19 17 -20 0 -20 -17 0 -17 -1 0 -20 17 -19 17 -20 1 -20 -9 0 -14 -4 -11
-10 3 -5 0 -10 -7 -11 -7 -1 -2 -5 12 -9 l25 -8 -25 -1 c-20 -1 -22 -3 -10
-11 13 -9 13 -10 0 -11 -8 0 -4 -5 10 -9 l25 -8 -25 -1 c-20 -1 -22 -3 -10
-11 13 -9 13 -10 0 -11 -8 0 -4 -5 10 -9 l25 -8 -25 -1 c-20 -1 -22 -3 -10
-11 13 -9 13 -10 0 -11 -8 0 -4 -5 10 -9 l25 -8 -25 -1 c-20 -1 -22 -3 -10
-11 10 -6 11 -10 3 -10 -7 0 -13 -6 -13 -14 0 -8 6 -17 13 -19 10 -4 10 -6 0
-6 -7 -1 -13 -7 -13 -15 0 -8 6 -17 13 -19 10 -4 10 -6 0 -6 -7 -1 -13 -7 -13
-15 0 -8 6 -17 13 -19 10 -4 10 -6 0 -6 -7 -1 -13 -7 -13 -15 0 -8 6 -17 13
-19 10 -4 10 -6 0 -6 -10 -1 -13 -188 -13 -900 l0 -900 26 -20 c26 -20 37 -21
441 -21 l414 0 24 25 25 24 0 1680 c0 1040 -4 1689 -10 1705 -15 41 -58 46
-410 45 -179 -1 -311 -5 -295 -9z m33 -107 c-10 -2 -26 -2 -35 0 -10 3 -2 5
17 5 19 0 27 -2 18 -5z m-80 -480 c-10 -2 -26 -2 -35 0 -10 3 -2 5 17 5 19 0
27 -2 18 -5z m-80 -560 c-10 -2 -26 -2 -35 0 -10 3 -2 5 17 5 19 0 27 -2 18
-5z"/>
</g>
</svg>
